<?xml version="1.0" encoding="UTF-8"?>
<svg xmlns="http://www.w3.org/2000/svg" viewBox="0 0 595.28 595.28">
  <defs>
    <style>
      .cls-1 {
        fill: #fff;
      }

      .cls-2, .cls-3 {
        fill: #231815;
      }

      .cls-3 {
        font-family: NotoSansJP-Bold, 'Noto Sans JP';
        font-size: 40px;
        font-variation-settings: 'wght' 700;
        font-weight: 700;
      }
    </style>
  </defs>
  <g id="_レイヤー_2" data-name="レイヤー 2">
    <rect class="cls-1" x="30.09" y="212.94" width="511.7" height="148.91"/>
  </g>
  <g id="_レイヤー_1" data-name="レイヤー 1">
    <g>
      <path class="cls-2" d="M47.27,277.49v-51.54h26.54c4.92,0,8.68.42,11.29,1.27s4.7,2.41,6.29,4.69c1.59,2.29,2.39,5.07,2.39,8.35,0,2.86-.61,5.33-1.83,7.4-1.22,2.07-2.9,3.76-5.03,5.04-1.36.82-3.22,1.5-5.59,2.04,1.9.63,3.28,1.27,4.15,1.9.59.42,1.43,1.33,2.55,2.71,1.11,1.38,1.86,2.45,2.23,3.2l7.71,14.93h-18l-8.51-15.75c-1.08-2.04-2.04-3.36-2.88-3.97-1.15-.8-2.45-1.2-3.9-1.2h-1.41v20.92h-16ZM63.27,246.84h6.71c.73,0,2.13-.23,4.22-.7,1.05-.21,1.92-.75,2.58-1.62.67-.87,1-1.86,1-2.99,0-1.66-.53-2.94-1.58-3.83-1.05-.89-3.04-1.34-5.94-1.34h-7v10.48Z"/>
      <path class="cls-2" d="M102.64,225.95h14.31v9.74h-14.31v-9.74ZM102.64,240.16h14.31v37.34h-14.31v-37.34Z"/>
      <path class="cls-2" d="M123.56,267.12l14.2-1.34c.59,1.69,1.41,2.9,2.46,3.62,1.05.73,2.46,1.09,4.22,1.09,1.92,0,3.41-.41,4.46-1.23.82-.61,1.23-1.37,1.23-2.28,0-1.03-.54-1.83-1.62-2.39-.77-.4-2.82-.89-6.15-1.47-4.97-.87-8.42-1.67-10.35-2.41-1.93-.74-3.56-1.98-4.89-3.74-1.32-1.76-1.99-3.76-1.99-6.01,0-2.46.71-4.58,2.14-6.36,1.43-1.78,3.4-3.11,5.91-3.99,2.51-.88,5.87-1.32,10.09-1.32,4.45,0,7.74.34,9.86,1.02,2.12.68,3.89,1.73,5.31,3.16,1.42,1.43,2.6,3.36,3.53,5.8l-13.57,1.34c-.35-1.2-.94-2.07-1.76-2.64-1.12-.75-2.48-1.12-4.08-1.12s-2.79.29-3.53.86c-.74.57-1.11,1.27-1.11,2.09,0,.91.47,1.6,1.41,2.07.94.47,2.98.89,6.12,1.26,4.76.54,8.3,1.29,10.62,2.25,2.32.96,4.1,2.33,5.33,4.11,1.23,1.78,1.85,3.73,1.85,5.87s-.65,4.25-1.95,6.29c-1.3,2.04-3.35,3.66-6.15,4.86-2.8,1.21-6.62,1.81-11.44,1.81-6.82,0-11.68-.97-14.57-2.92-2.9-1.95-4.75-4.71-5.57-8.3Z"/>
      <path class="cls-2" d="M183.12,252.25l-13.68-1.44c.52-2.39,1.26-4.27,2.23-5.64.97-1.37,2.37-2.56,4.2-3.57,1.31-.73,3.12-1.29,5.41-1.69,2.3-.4,4.78-.6,7.45-.6,4.29,0,7.73.24,10.34.72,2.6.48,4.77,1.48,6.5,3.01,1.22,1.05,2.18,2.55,2.88,4.48s1.05,3.78,1.05,5.54v16.49c0,1.76.11,3.13.33,4.13.22,1,.71,2.27,1.46,3.81h-13.43c-.54-.96-.89-1.69-1.05-2.2-.16-.5-.33-1.29-.49-2.37-1.88,1.81-3.74,3.09-5.59,3.87-2.53,1.03-5.47,1.55-8.82,1.55-4.45,0-7.83-1.03-10.14-3.09-2.31-2.06-3.46-4.61-3.46-7.63,0-2.84.83-5.17,2.5-7,1.66-1.83,4.73-3.19,9.21-4.08,5.37-1.08,8.85-1.83,10.44-2.27,1.59-.43,3.28-1,5.06-1.71,0-1.76-.36-2.99-1.09-3.69-.73-.7-2-1.05-3.83-1.05-2.34,0-4.1.38-5.27,1.12-.91.59-1.65,1.69-2.21,3.3ZM195.53,259.77c-1.97.7-4.02,1.32-6.15,1.86-2.91.77-4.75,1.54-5.52,2.29-.8.77-1.2,1.65-1.2,2.64,0,1.12.39,2.04,1.18,2.76.79.72,1.94,1.07,3.46,1.07s3.08-.39,4.45-1.16,2.34-1.72,2.92-2.83c.57-1.11.86-2.56.86-4.34v-2.29Z"/>
      <path class="cls-2" d="M237.85,225.95h17.69l10.38,17.39,10.41-17.39h17.59l-20.04,29.95v21.59h-15.96v-21.59l-20.07-29.95Z"/>
      <path class="cls-2" d="M296.35,258.93c0-5.7,1.92-10.39,5.77-14.08s9.04-5.54,15.57-5.54c7.48,0,13.12,2.17,16.95,6.5,3.07,3.49,4.61,7.79,4.61,12.9,0,5.74-1.9,10.45-5.71,14.12-3.81,3.67-9.08,5.5-15.8,5.5-6,0-10.85-1.52-14.55-4.57-4.55-3.77-6.82-8.72-6.82-14.84ZM310.7,258.89c0,3.33.67,5.79,2.02,7.38,1.35,1.59,3.04,2.39,5.08,2.39s3.76-.79,5.08-2.36c1.32-1.57,1.99-4.09,1.99-7.56,0-3.23-.67-5.64-2-7.22s-2.99-2.37-4.96-2.37c-2.09,0-3.81.8-5.17,2.41-1.36,1.61-2.04,4.05-2.04,7.33Z"/>
      <path class="cls-2" d="M343.6,267.12l14.2-1.34c.59,1.69,1.41,2.9,2.46,3.62,1.05.73,2.46,1.09,4.22,1.09,1.92,0,3.41-.41,4.46-1.23.82-.61,1.23-1.37,1.23-2.28,0-1.03-.54-1.83-1.62-2.39-.77-.4-2.82-.89-6.15-1.47-4.97-.87-8.42-1.67-10.35-2.41-1.93-.74-3.56-1.98-4.89-3.74-1.32-1.76-1.99-3.76-1.99-6.01,0-2.46.71-4.58,2.14-6.36,1.43-1.78,3.4-3.11,5.91-3.99s5.87-1.32,10.09-1.32c4.45,0,7.74.34,9.86,1.02,2.12.68,3.89,1.73,5.31,3.16,1.42,1.43,2.6,3.36,3.53,5.8l-13.57,1.34c-.35-1.2-.94-2.07-1.76-2.64-1.12-.75-2.48-1.12-4.08-1.12s-2.79.29-3.53.86c-.74.57-1.11,1.27-1.11,2.09,0,.91.47,1.6,1.41,2.07.94.47,2.98.89,6.12,1.26,4.76.54,8.3,1.29,10.62,2.25,2.32.96,4.1,2.33,5.33,4.11,1.23,1.78,1.85,3.73,1.85,5.87s-.65,4.25-1.95,6.29c-1.3,2.04-3.35,3.66-6.15,4.86s-6.62,1.81-11.44,1.81c-6.82,0-11.68-.97-14.57-2.92-2.89-1.95-4.75-4.71-5.57-8.3Z"/>
      <path class="cls-2" d="M390.12,225.95h14.31v18.98c1.95-2.02,3.88-3.46,5.8-4.32,1.92-.87,4.2-1.3,6.82-1.3,3.89,0,6.96,1.18,9.19,3.55,2.24,2.37,3.36,6,3.36,10.9v23.73h-14.38v-20.53c0-2.34-.43-4-1.3-4.97-.87-.97-2.09-1.46-3.66-1.46-1.73,0-3.14.66-4.22,1.97-1.08,1.31-1.62,3.67-1.62,7.07v17.93h-14.31v-51.54Z"/>
      <path class="cls-2" d="M438.67,225.95h14.31v9.74h-14.31v-9.74ZM438.67,240.16h14.31v37.34h-14.31v-37.34Z"/>
      <path class="cls-2" d="M462.64,225.95h14.31v9.74h-14.31v-9.74ZM462.64,240.16h14.31v37.34h-14.31v-37.34Z"/>
    </g>
    <text class="cls-3" transform="translate(47.26 348.84)"><tspan x="0" y="0">吉井 梨紗</tspan></text>
  </g>
</svg>